ffmpeg started on 2025-06-06 at 16:01:21
Report written to "D:\Convert\FFMetrics\reports\ssim_report-6.txt"
Log level: 32
Command line:
ffmpeg -hide_banner -nostdin -i "G:\\\xc0\xed\xe8\xec\xe5\\\xce\xed\xe3\xee\xe8\xed\xe3\xe8\\!_36_\xce\xf1\xe5\xed\xfc_2024\\DreamCast\\\xcf\xe5\xf0\xe5\xf0\xee\xe6\xe4\xe5\xed\xe8\xe5 \xe2 \xe0\xf0\xe8\xf1\xf2\xee\xea\xf0\xe0\xf2\xe0 \xf1\xee \xf1\xef\xee\xf1\xee\xe1\xed\xee\xf1\xf2\xfc\xfe \xe0\xed\xe0\xeb\xe8\xe7\xe0\\\xd2\xc2-1\\[DC] Tensei Kizoku - Kantei Skill de Nariagaru - 10_Telegram_HEVC.mkv" -i "G:\\\xc0\xed\xe8\xec\xe5\\\xce\xed\xe3\xee\xe8\xed\xe3\xe8\\!_36_\xce\xf1\xe5\xed\xfc_2024\\DreamCast\\\xcf\xe5\xf0\xe5\xf0\xee\xe6\xe4\xe5\xed\xe8\xe5 \xe2 \xe0\xf0\xe8\xf1\xf2\xee\xea\xf0\xe0\xf2\xe0 \xf1\xee \xf1\xef\xee\xf1\xee\xe1\xed\xee\xf1\xf2\xfc\xfe \xe0\xed\xe0\xeb\xe8\xe7\xe0\\\xd2\xc2-1\\[DC] Tensei Kizoku - Kantei Skill de Nariagaru - 10_Telegram.mp4" -lavfi "[0:v]settb=AVTB,setpts=PTS-STARTPTS,format=pix_fmts=yuv420p10,fps=24000/1001,scale=1920:1080:flags=bicubic[main];[1:v]settb=AVTB,setpts=PTS-STARTPTS,format=pix_fmts=yuv420p,fps=24000/1001,scale=1920:1080:flags=bicubic[ref];[main][ref]ssim=eof_action=endall:stats_file='D\\:/Convert/FFMetrics/logs/ssim_logfile-6.txt'" -f null -
Input #0, matroska,webm, from 'G:\Аниме\Онгоинги\!_36_Осень_2024\DreamCast\Перерождение в аристократа со способностью анализа\ТВ-1\[DC] Tensei Kizoku - Kantei Skill de Nariagaru - 10_Telegram_HEVC.mkv':
  Metadata:
    COMPATIBLE_BRANDS: isomiso2avc1mp41
    MAJOR_BRAND     : isom
    MINOR_VERSION   : 512
    ENCODER         : Lavf61.7.100
  Duration: 00:23:47.12, start: -0.021000, bitrate: 965 kb/s
  Stream #0:0: Video: hevc (Main 10), yuv420p10le(tv, bt709, progressive), 1920x1080 [SAR 1:1 DAR 16:9], 23.98 fps, 23.98 tbr, 1k tbn (default)
      Metadata:
        HANDLER_NAME    : VideoHandler
        VENDOR_ID       : [0][0][0][0]
        ENCODER         : Lavc61.19.100 libx265
        BPS             : 768695
        DURATION        : 00:23:46.549708333
        NUMBER_OF_FRAMES: 34203
        NUMBER_OF_BYTES : 137072731
        _STATISTICS_WRITING_APP: mkvpropedit v66.0.0 ('Josie') 64-bit
        _STATISTICS_WRITING_DATE_UTC: 2025-06-02 08:23:25
        _STATISTICS_TAGS: BPS DURATION NUMBER_OF_FRAMES NUMBER_OF_BYTES
  Stream #0:1: Audio: aac (LC), 48000 Hz, stereo, fltp (default)
      Metadata:
        HANDLER_NAME    : SoundHandler
        VENDOR_ID       : [0][0][0][0]
        ENCODER         : Lavc61.19.100 aac
        BPS             : 193311
        DURATION        : 00:23:47.114000000
        NUMBER_OF_FRAMES: 66897
        NUMBER_OF_BYTES : 34484726
        _STATISTICS_WRITING_APP: mkvpropedit v66.0.0 ('Josie') 64-bit
        _STATISTICS_WRITING_DATE_UTC: 2025-06-02 08:23:25
        _STATISTICS_TAGS: BPS DURATION NUMBER_OF_FRAMES NUMBER_OF_BYTES
Input #1, mov,mp4,m4a,3gp,3g2,mj2, from 'G:\Аниме\Онгоинги\!_36_Осень_2024\DreamCast\Перерождение в аристократа со способностью анализа\ТВ-1\[DC] Tensei Kizoku - Kantei Skill de Nariagaru - 10_Telegram.mp4':
  Metadata:
    major_brand     : isom
    minor_version   : 512
    compatible_brands: isomiso2avc1mp41
    encoder         : Lavf60.16.100
  Duration: 00:23:47.06, start: 0.000000, bitrate: 3539 kb/s
  Stream #1:0[0x1](und): Video: h264 (High) (avc1 / 0x31637661), yuv420p(tv, bt709, progressive), 1920x1080 [SAR 1:1 DAR 16:9], 3392 kb/s, 23.98 fps, 23.98 tbr, 24k tbn (default)
      Metadata:
        handler_name    : VideoHandler
        vendor_id       : [0][0][0][0]
        encoder         : Lavc60.31.102 h264_qsv
  Stream #1:1[0x2](und): Audio: aac (HE-AACv2) (mp4a / 0x6134706D), 48000 Hz, stereo, fltp, 144 kb/s (default)
      Metadata:
        handler_name    : SoundHandler
        vendor_id       : [0][0][0][0]
Stream mapping:
  Stream #0:0 (hevc) -> settb:default
  Stream #1:0 (h264) -> settb:default
  ssim:default -> Stream #0:0 (wrapped_avframe)
  Stream #0:1 -> #0:1 (aac (native) -> pcm_s16le (native))
Output #0, null, to 'pipe:':
  Metadata:
    COMPATIBLE_BRANDS: isomiso2avc1mp41
    MAJOR_BRAND     : isom
    MINOR_VERSION   : 512
    encoder         : Lavf61.7.100
  Stream #0:0: Video: wrapped_avframe, yuv420p10le(tv, bt709, progressive), 1920x1080 [SAR 1:1 DAR 16:9], q=2-31, 200 kb/s, 23.98 fps, 23.98 tbn
      Metadata:
        encoder         : Lavc61.19.100 wrapped_avframe
  Stream #0:1: Audio: pcm_s16le, 48000 Hz, stereo, s16, 1536 kb/s (default)
      Metadata:
        HANDLER_NAME    : SoundHandler
        VENDOR_ID       : [0][0][0][0]
        _STATISTICS_TAGS: BPS DURATION NUMBER_OF_FRAMES NUMBER_OF_BYTES
        BPS             : 193311
        DURATION        : 00:23:47.114000000
        NUMBER_OF_FRAMES: 66897
        NUMBER_OF_BYTES : 34484726
        _STATISTICS_WRITING_APP: mkvpropedit v66.0.0 ('Josie') 64-bit
        _STATISTICS_WRITING_DATE_UTC: 2025-06-02 08:23:25
        encoder         : Lavc61.19.100 pcm_s16le
frame=  155 fps=0.0 q=-0.0 size=N/A time=00:00:06.46 bitrate=N/A speed=12.8x    frame=  395 fps=384 q=-0.0 size=N/A time=00:00:16.47 bitrate=N/A speed=  16x    frame=  618 fps=399 q=-0.0 size=N/A time=00:00:25.77 bitrate=N/A speed=16.7x    frame=  798 fps=389 q=-0.0 size=N/A time=00:00:33.28 bitrate=N/A speed=16.2x    frame=  991 fps=384 q=-0.0 size=N/A time=00:00:41.33 bitrate=N/A speed=  16x    frame= 1135 fps=368 q=-0.0 size=N/A time=00:00:47.33 bitrate=N/A speed=15.4x    frame= 1305 fps=362 q=-0.0 size=N/A time=00:00:54.42 bitrate=N/A speed=15.1x    frame= 1514 fps=367 q=-0.0 size=N/A time=00:01:03.14 bitrate=N/A speed=15.3x    frame= 1663 fps=358 q=-0.0 size=N/A time=00:01:09.36 bitrate=N/A speed=14.9x    frame= 1853 fps=360 q=-0.0 size=N/A time=00:01:17.28 bitrate=N/A speed=  15x    frame= 2058 fps=363 q=-0.0 size=N/A time=00:01:25.83 bitrate=N/A speed=15.1x    frame= 2275 fps=368 q=-0.0 size=N/A time=00:01:34.88 bitrate=N/A speed=15.3x    frame= 2502 fps=374 q=-0.0 size=N/A time=00:01:44.35 bitrate=N/A speed=15.6x    frame= 2720 fps=377 q=-0.0 size=N/A time=00:01:53.44 bitrate=N/A speed=15.7x    frame= 2875 fps=372 q=-0.0 size=N/A time=00:01:59.91 bitrate=N/A speed=15.5x    frame= 3109 fps=377 q=-0.0 size=N/A time=00:02:09.67 bitrate=N/A speed=15.7x    frame= 3371 fps=385 q=-0.0 size=N/A time=00:02:20.59 bitrate=N/A speed=  16x    frame= 3612 fps=390 q=-0.0 size=N/A time=00:02:30.65 bitrate=N/A speed=16.2x    frame= 3859 fps=394 q=-0.0 size=N/A time=00:02:40.95 bitrate=N/A speed=16.4x    frame= 4104 fps=398 q=-0.0 size=N/A time=00:02:51.17 bitrate=N/A speed=16.6x    frame= 4308 fps=398 q=-0.0 size=N/A time=00:02:59.67 bitrate=N/A speed=16.6x    frame= 4531 fps=400 q=-0.0 size=N/A time=00:03:08.98 bitrate=N/A speed=16.7x    frame= 4744 fps=400 q=-0.0 size=N/A time=00:03:17.86 bitrate=N/A speed=16.7x    frame= 4948 fps=400 q=-0.0 size=N/A time=00:03:26.37 bitrate=N/A speed=16.7x    frame= 5162 fps=401 q=-0.0 size=N/A time=00:03:35.29 bitrate=N/A speed=16.7x    frame= 5373 fps=401 q=-0.0 size=N/A time=00:03:44.09 bitrate=N/A speed=16.7x    frame= 5596 fps=402 q=-0.0 size=N/A time=00:03:53.39 bitrate=N/A speed=16.8x    frame= 5866 fps=406 q=-0.0 size=N/A time=00:04:04.66 bitrate=N/A speed=16.9x    frame= 6120 fps=410 q=-0.0 size=N/A time=00:04:15.25 bitrate=N/A speed=17.1x    frame= 6400 fps=414 q=-0.0 size=N/A time=00:04:26.93 bitrate=N/A speed=17.3x    frame= 6643 fps=416 q=-0.0 size=N/A time=00:04:37.06 bitrate=N/A speed=17.3x    frame= 6876 fps=417 q=-0.0 size=N/A time=00:04:46.78 bitrate=N/A speed=17.4x    frame= 7102 fps=417 q=-0.0 size=N/A time=00:04:56.21 bitrate=N/A speed=17.4x    frame= 7334 fps=419 q=-0.0 size=N/A time=00:05:05.88 bitrate=N/A speed=17.5x    frame= 7582 fps=420 q=-0.0 size=N/A time=00:05:16.23 bitrate=N/A speed=17.5x    frame= 7819 fps=421 q=-0.0 size=N/A time=00:05:26.11 bitrate=N/A speed=17.6x    frame= 8039 fps=421 q=-0.0 size=N/A time=00:05:35.29 bitrate=N/A speed=17.6x    frame= 8311 fps=424 q=-0.0 size=N/A time=00:05:46.63 bitrate=N/A speed=17.7x    frame= 8587 fps=427 q=-0.0 size=N/A time=00:05:58.14 bitrate=N/A speed=17.8x    frame= 8849 fps=429 q=-0.0 size=N/A time=00:06:09.07 bitrate=N/A speed=17.9x    frame= 9127 fps=432 q=-0.0 size=N/A time=00:06:20.67 bitrate=N/A speed=  18x    frame= 9389 fps=434 q=-0.0 size=N/A time=00:06:31.59 bitrate=N/A speed=18.1x    frame= 9655 fps=435 q=-0.0 size=N/A time=00:06:42.69 bitrate=N/A speed=18.2x    frame= 9912 fps=437 q=-0.0 size=N/A time=00:06:53.41 bitrate=N/A speed=18.2x    frame=10191 fps=439 q=-0.0 size=N/A time=00:07:05.04 bitrate=N/A speed=18.3x    frame=10461 fps=441 q=-0.0 size=N/A time=00:07:16.31 bitrate=N/A speed=18.4x    frame=10720 fps=442 q=-0.0 size=N/A time=00:07:27.11 bitrate=N/A speed=18.4x    frame=10968 fps=443 q=-0.0 size=N/A time=00:07:37.45 bitrate=N/A speed=18.5x    frame=11224 fps=444 q=-0.0 size=N/A time=00:07:48.13 bitrate=N/A speed=18.5x    frame=11498 fps=446 q=-0.0 size=N/A time=00:07:59.56 bitrate=N/A speed=18.6x    frame=11769 fps=448 q=-0.0 size=N/A time=00:08:10.86 bitrate=N/A speed=18.7x    frame=12050 fps=449 q=-0.0 size=N/A time=00:08:22.58 bitrate=N/A speed=18.7x    frame=12303 fps=450 q=-0.0 size=N/A time=00:08:33.13 bitrate=N/A speed=18.8x    frame=12543 fps=451 q=-0.0 size=N/A time=00:08:43.14 bitrate=N/A speed=18.8x    frame=12793 fps=451 q=-0.0 size=N/A time=00:08:53.57 bitrate=N/A speed=18.8x    frame=13056 fps=452 q=-0.0 size=N/A time=00:09:04.54 bitrate=N/A speed=18.9x    frame=13309 fps=453 q=-0.0 size=N/A time=00:09:15.09 bitrate=N/A speed=18.9x    frame=13562 fps=454 q=-0.0 size=N/A time=00:09:25.64 bitrate=N/A speed=18.9x    frame=13844 fps=455 q=-0.0 size=N/A time=00:09:37.41 bitrate=N/A speed=  19x    frame=14104 fps=456 q=-0.0 size=N/A time=00:09:48.25 bitrate=N/A speed=  19x    frame=14367 fps=457 q=-0.0 size=N/A time=00:09:59.22 bitrate=N/A speed=19.1x    frame=14584 fps=456 q=-0.0 size=N/A time=00:10:08.27 bitrate=N/A speed=  19x    frame=14830 fps=457 q=-0.0 size=N/A time=00:10:18.53 bitrate=N/A speed=  19x    frame=15093 fps=457 q=-0.0 size=N/A time=00:10:29.50 bitrate=N/A speed=19.1x    frame=15335 fps=458 q=-0.0 size=N/A time=00:10:39.59 bitrate=N/A speed=19.1x    frame=15609 fps=459 q=-0.0 size=N/A time=00:10:51.02 bitrate=N/A speed=19.1x    frame=15874 fps=460 q=-0.0 size=N/A time=00:11:02.07 bitrate=N/A speed=19.2x    frame=16140 fps=460 q=-0.0 size=N/A time=00:11:13.17 bitrate=N/A speed=19.2x    frame=16421 fps=462 q=-0.0 size=N/A time=00:11:24.89 bitrate=N/A speed=19.3x    frame=16705 fps=463 q=-0.0 size=N/A time=00:11:36.73 bitrate=N/A speed=19.3x    frame=16957 fps=463 q=-0.0 size=N/A time=00:11:47.24 bitrate=N/A speed=19.3x    frame=17210 fps=464 q=-0.0 size=N/A time=00:11:57.80 bitrate=N/A speed=19.3x    frame=17473 fps=464 q=-0.0 size=N/A time=00:12:08.76 bitrate=N/A speed=19.4x    frame=17703 fps=464 q=-0.0 size=N/A time=00:12:18.36 bitrate=N/A speed=19.4x    frame=17945 fps=464 q=-0.0 size=N/A time=00:12:28.45 bitrate=N/A speed=19.4x    frame=18201 fps=464 q=-0.0 size=N/A time=00:12:39.13 bitrate=N/A speed=19.4x    frame=18488 fps=466 q=-0.0 size=N/A time=00:12:51.10 bitrate=N/A speed=19.4x    frame=18743 fps=466 q=-0.0 size=N/A time=00:13:01.73 bitrate=N/A speed=19.4x    frame=18988 fps=466 q=-0.0 size=N/A time=00:13:11.95 bitrate=N/A speed=19.4x    frame=19215 fps=466 q=-0.0 size=N/A time=00:13:21.42 bitrate=N/A speed=19.4x    frame=19438 fps=465 q=-0.0 size=N/A time=00:13:30.72 bitrate=N/A speed=19.4x    frame=19673 fps=465 q=-0.0 size=N/A time=00:13:40.52 bitrate=N/A speed=19.4x    frame=19938 fps=466 q=-0.0 size=N/A time=00:13:51.58 bitrate=N/A speed=19.4x    frame=20192 fps=466 q=-0.0 size=N/A time=00:14:02.17 bitrate=N/A speed=19.4x    frame=20444 fps=466 q=-0.0 size=N/A time=00:14:12.68 bitrate=N/A speed=19.5x    frame=20707 fps=467 q=-0.0 size=N/A time=00:14:23.65 bitrate=N/A speed=19.5x    frame=20967 fps=467 q=-0.0 size=N/A time=00:14:34.49 bitrate=N/A speed=19.5x    frame=21228 fps=468 q=-0.0 size=N/A time=00:14:45.38 bitrate=N/A speed=19.5x    frame=21480 fps=468 q=-0.0 size=N/A time=00:14:55.89 bitrate=N/A speed=19.5x    frame=21740 fps=468 q=-0.0 size=N/A time=00:15:06.73 bitrate=N/A speed=19.5x    frame=21996 fps=469 q=-0.0 size=N/A time=00:15:17.41 bitrate=N/A speed=19.5x    frame=22264 fps=469 q=-0.0 size=N/A time=00:15:28.59 bitrate=N/A speed=19.6x    frame=22528 fps=470 q=-0.0 size=N/A time=00:15:39.60 bitrate=N/A speed=19.6x    frame=22771 fps=470 q=-0.0 size=N/A time=00:15:49.74 bitrate=N/A speed=19.6x    frame=22984 fps=469 q=-0.0 size=N/A time=00:15:58.62 bitrate=N/A speed=19.6x    frame=23214 fps=469 q=-0.0 size=N/A time=00:16:08.21 bitrate=N/A speed=19.6x    frame=23441 fps=469 q=-0.0 size=N/A time=00:16:17.68 bitrate=N/A speed=19.5x    frame=23674 fps=468 q=-0.0 size=N/A time=00:16:27.40 bitrate=N/A speed=19.5x    frame=23890 fps=468 q=-0.0 size=N/A time=00:16:36.41 bitrate=N/A speed=19.5x    frame=24128 fps=468 q=-0.0 size=N/A time=00:16:46.33 bitrate=N/A speed=19.5x    frame=24384 fps=468 q=-0.0 size=N/A time=00:16:57.01 bitrate=N/A speed=19.5x    frame=24632 fps=468 q=-0.0 size=N/A time=00:17:07.35 bitrate=N/A speed=19.5x    frame=24893 fps=469 q=-0.0 size=N/A time=00:17:18.24 bitrate=N/A speed=19.5x    frame=25146 fps=469 q=-0.0 size=N/A time=00:17:28.79 bitrate=N/A speed=19.6x    frame=25361 fps=468 q=-0.0 size=N/A time=00:17:37.76 bitrate=N/A speed=19.5x    frame=25590 fps=468 q=-0.0 size=N/A time=00:17:47.31 bitrate=N/A speed=19.5x    frame=25802 fps=468 q=-0.0 size=N/A time=00:17:56.15 bitrate=N/A speed=19.5x    frame=26060 fps=468 q=-0.0 size=N/A time=00:18:06.91 bitrate=N/A speed=19.5x    frame=26326 fps=468 q=-0.0 size=N/A time=00:18:18.01 bitrate=N/A speed=19.5x    frame=26561 fps=468 q=-0.0 size=N/A time=00:18:27.81 bitrate=N/A speed=19.5x    frame=26812 fps=468 q=-0.0 size=N/A time=00:18:38.28 bitrate=N/A speed=19.5x    frame=27058 fps=468 q=-0.0 size=N/A time=00:18:48.54 bitrate=N/A speed=19.5x    frame=27316 fps=469 q=-0.0 size=N/A time=00:18:59.30 bitrate=N/A speed=19.6x    frame=27585 fps=469 q=-0.0 size=N/A time=00:19:10.52 bitrate=N/A speed=19.6x    frame=27846 fps=470 q=-0.0 size=N/A time=00:19:21.41 bitrate=N/A speed=19.6x    frame=28102 fps=470 q=-0.0 size=N/A time=00:19:32.08 bitrate=N/A speed=19.6x    frame=28356 fps=470 q=-0.0 size=N/A time=00:19:42.68 bitrate=N/A speed=19.6x    frame=28586 fps=470 q=-0.0 size=N/A time=00:19:52.27 bitrate=N/A speed=19.6x    frame=28838 fps=470 q=-0.0 size=N/A time=00:20:02.78 bitrate=N/A speed=19.6x    frame=29089 fps=470 q=-0.0 size=N/A time=00:20:13.25 bitrate=N/A speed=19.6x    frame=29351 fps=470 q=-0.0 size=N/A time=00:20:24.18 bitrate=N/A speed=19.6x    frame=29549 fps=470 q=-0.0 size=N/A time=00:20:32.43 bitrate=N/A speed=19.6x    frame=29793 fps=470 q=-0.0 size=N/A time=00:20:42.61 bitrate=N/A speed=19.6x    frame=30035 fps=470 q=-0.0 size=N/A time=00:20:52.70 bitrate=N/A speed=19.6x    frame=30267 fps=470 q=-0.0 size=N/A time=00:21:02.38 bitrate=N/A speed=19.6x    frame=30530 fps=470 q=-0.0 size=N/A time=00:21:13.35 bitrate=N/A speed=19.6x    frame=30784 fps=470 q=-0.0 size=N/A time=00:21:23.94 bitrate=N/A speed=19.6x    frame=31036 fps=470 q=-0.0 size=N/A time=00:21:34.45 bitrate=N/A speed=19.6x    frame=31284 fps=470 q=-0.0 size=N/A time=00:21:44.80 bitrate=N/A speed=19.6x    frame=31511 fps=470 q=-0.0 size=N/A time=00:21:54.27 bitrate=N/A speed=19.6x    frame=31710 fps=469 q=-0.0 size=N/A time=00:22:02.57 bitrate=N/A speed=19.6x    frame=31878 fps=468 q=-0.0 size=N/A time=00:22:09.57 bitrate=N/A speed=19.5x    frame=32055 fps=467 q=-0.0 size=N/A time=00:22:16.96 bitrate=N/A speed=19.5x    frame=32270 fps=467 q=-0.0 size=N/A time=00:22:25.92 bitrate=N/A speed=19.5x    frame=32454 fps=466 q=-0.0 size=N/A time=00:22:33.60 bitrate=N/A speed=19.4x    frame=32647 fps=465 q=-0.0 size=N/A time=00:22:41.65 bitrate=N/A speed=19.4x    frame=32820 fps=464 q=-0.0 size=N/A time=00:22:48.86 bitrate=N/A speed=19.4x    frame=33018 fps=464 q=-0.0 size=N/A time=00:22:57.12 bitrate=N/A speed=19.4x    frame=33195 fps=463 q=-0.0 size=N/A time=00:23:04.50 bitrate=N/A speed=19.3x    frame=33403 fps=463 q=-0.0 size=N/A time=00:23:13.18 bitrate=N/A speed=19.3x    frame=33610 fps=462 q=-0.0 size=N/A time=00:23:21.81 bitrate=N/A speed=19.3x    frame=33782 fps=461 q=-0.0 size=N/A time=00:23:28.99 bitrate=N/A speed=19.2x    frame=33983 fps=461 q=-0.0 size=N/A time=00:23:37.37 bitrate=N/A speed=19.2x    frame=34175 fps=460 q=-0.0 size=N/A time=00:23:45.38 bitrate=N/A speed=19.2x    [Parsed_ssim_10 @ 000002105616a240] SSIM Y:0.992887 (21.479678) U:0.994037 (22.245270) V:0.993960 (22.189492) All:0.993258 (21.711903)
[out#0/null @ 0000021055ca50c0] video:14697KiB audio:267588KiB subtitle:0KiB other streams:0KiB global headers:0KiB muxing overhead: unknown
frame=34203 fps=460 q=-0.0 Lsize=N/A time=00:23:46.55 bitrate=N/A speed=19.2x    
